<?xml version="1.0" encoding="utf-8" standalone="no"?>
<!DOCTYPE svg PUBLIC "-//W3C//DTD SVG 1.1//EN"
  "http://www.w3.org/Graphics/SVG/1.1/DTD/svg11.dtd">
<svg xmlns:xlink="http://www.w3.org/1999/xlink" width="792pt" height="288pt" viewBox="0 0 792 288" xmlns="http://www.w3.org/2000/svg" version="1.1">
 <metadata>
  <rdf:RDF xmlns:dc="http://purl.org/dc/elements/1.1/" xmlns:cc="http://creativecommons.org/ns#" xmlns:rdf="http://www.w3.org/1999/02/22-rdf-syntax-ns#">
   <cc:Work>
    <dc:type rdf:resource="http://purl.org/dc/dcmitype/StillImage"/>
    <dc:date>2026-10-05T20:20:31.430990</dc:date>
    <dc:format>image/svg+xml</dc:format>
    <dc:creator>
     <cc:Agent>
      <dc:title>Matplotlib v3.10.0, https://matplotlib.org/</dc:title>
     </cc:Agent>
    </dc:creator>
   </cc:Work>
  </rdf:RDF>
 </metadata>
 <defs>
  <style type="text/css">*{stroke-linejoin: round; stroke-linecap: butt}</style>
 </defs>
 <g id="figure_1">
  <g id="patch_1">
   <path d="M 0 288 
L 792 288 
L 792 0 
L 0 0 
z
" style="fill: #ffffff"/>
  </g>
  <g id="axes_1">
   <g id="patch_2">
    <path d="M 59.24 246.04 
L 394.785 246.04 
L 394.785 13.656716 
L 59.24 13.656716 
z
" style="fill: #ffffff"/>
   </g>
   <g id="matplotlib.axis_1">
    <g id="xtick_1">
     <g id="line2d_1">
      <defs>
       <path id="me11dbe6b6a" d="M 0 0 
L 0 3.5 
" style="stroke: #000000; stroke-width: 0.8"/>
      </defs>
      <g>
       <use xlink:href="#me11dbe6b6a" x="74.492045" y="246.04" style="stroke: #000000; stroke-width: 0.8"/>
      </g>
     </g>
     <g id="text_1">
      <!-- 0 -->
      <g transform="translate(71.310795 260.638438) scale(0.1 -0.1)">
       <defs>
        <path id="DejaVuSans-30" d="M 2034 4250 
Q 1547 4250 1301 3770 
Q 1056 3291 1056 2328 
Q 1056 1369 1301 889 
Q 1547 409 2034 409 
Q 2525 409 2770 889 
Q 3016 1369 3016 2328 
Q 3016 3291 2770 3770 
Q 2525 4250 2034 4250 
z
M 2034 4750 
Q 2819 4750 3233 4129 
Q 3647 3509 3647 2328 
Q 3647 1150 3233 529 
Q 2819 -91 2034 -91 
Q 1250 -91 836 529 
Q 422 1150 422 2328 
Q 422 3509 836 4129 
Q 1250 4750 2034 4750 
z
" transform="scale(0.015625)"/>
       </defs>
       <use xlink:href="#DejaVuSans-30"/>
      </g>
     </g>
    </g>
    <g id="xtick_2">
     <g id="line2d_2">
      <g>
       <use xlink:href="#me11dbe6b6a" x="131.615811" y="246.04" style="stroke: #000000; stroke-width: 0.8"/>
      </g>
     </g>
     <g id="text_2">
      <!-- 100 -->
      <g transform="translate(122.072061 260.638438) scale(0.1 -0.1)">
       <defs>
        <path id="DejaVuSans-31" d="M 794 531 
L 1825 531 
L 1825 4091 
L 703 3866 
L 703 4441 
L 1819 4666 
L 2450 4666 
L 2450 531 
L 3481 531 
L 3481 0 
L 794 0 
L 794 531 
z
" transform="scale(0.015625)"/>
       </defs>
       <use xlink:href="#DejaVuSans-31"/>
       <use xlink:href="#DejaVuSans-30" transform="translate(63.623047 0)"/>
       <use xlink:href="#DejaVuSans-30" transform="translate(127.246094 0)"/>
      </g>
     </g>
    </g>
    <g id="xtick_3">
     <g id="line2d_3">
      <g>
       <use xlink:href="#me11dbe6b6a" x="188.739577" y="246.04" style="stroke: #000000; stroke-width: 0.8"/>
      </g>
     </g>
     <g id="text_3">
      <!-- 200 -->
      <g transform="translate(179.195827 260.638438) scale(0.1 -0.1)">
       <defs>
        <path id="DejaVuSans-32" d="M 1228 531 
L 3431 531 
L 3431 0 
L 469 0 
L 469 531 
Q 828 903 1448 1529 
Q 2069 2156 2228 2338 
Q 2531 2678 2651 2914 
Q 2772 3150 2772 3378 
Q 2772 3750 2511 3984 
Q 2250 4219 1831 4219 
Q 1534 4219 1204 4116 
Q 875 4013 500 3803 
L 500 4441 
Q 881 4594 1212 4672 
Q 1544 4750 1819 4750 
Q 2544 4750 2975 4387 
Q 3406 4025 3406 3419 
Q 3406 3131 3298 2873 
Q 3191 2616 2906 2266 
Q 2828 2175 2409 1742 
Q 1991 1309 1228 531 
z
" transform="scale(0.015625)"/>
       </defs>
       <use xlink:href="#DejaVuSans-32"/>
       <use xlink:href="#DejaVuSans-30" transform="translate(63.623047 0)"/>
       <use xlink:href="#DejaVuSans-30" transform="translate(127.246094 0)"/>
      </g>
     </g>
    </g>
    <g id="xtick_4">
     <g id="line2d_4">
      <g>
       <use xlink:href="#me11dbe6b6a" x="245.863343" y="246.04" style="stroke: #000000; stroke-width: 0.8"/>
      </g>
     </g>
     <g id="text_4">
      <!-- 300 -->
      <g transform="translate(236.319593 260.638438) scale(0.1 -0.1)">
       <defs>
        <path id="DejaVuSans-33" d="M 2597 2516 
Q 3050 2419 3304 2112 
Q 3559 1806 3559 1356 
Q 3559 666 3084 287 
Q 2609 -91 1734 -91 
Q 1441 -91 1130 -33 
Q 819 25 488 141 
L 488 750 
Q 750 597 1062 519 
Q 1375 441 1716 441 
Q 2309 441 2620 675 
Q 2931 909 2931 1356 
Q 2931 1769 2642 2001 
Q 2353 2234 1838 2234 
L 1294 2234 
L 1294 2753 
L 1863 2753 
Q 2328 2753 2575 2939 
Q 2822 3125 2822 3475 
Q 2822 3834 2567 4026 
Q 2313 4219 1838 4219 
Q 1578 4219 1281 4162 
Q 984 4106 628 3988 
L 628 4550 
Q 988 4650 1302 4700 
Q 1616 4750 1894 4750 
Q 2613 4750 3031 4423 
Q 3450 4097 3450 3541 
Q 3450 3153 3228 2886 
Q 3006 2619 2597 2516 
z
" transform="scale(0.015625)"/>
       </defs>
       <use xlink:href="#DejaVuSans-33"/>
       <use xlink:href="#DejaVuSans-30" transform="translate(63.623047 0)"/>
       <use xlink:href="#DejaVuSans-30" transform="translate(127.246094 0)"/>
      </g>
     </g>
    </g>
    <g id="xtick_5">
     <g id="line2d_5">
      <g>
       <use xlink:href="#me11dbe6b6a" x="302.987108" y="246.04" style="stroke: #000000; stroke-width: 0.8"/>
      </g>
     </g>
     <g id="text_5">
      <!-- 400 -->
      <g transform="translate(293.443358 260.638438) scale(0.1 -0.1)">
       <defs>
        <path id="DejaVuSans-34" d="M 2419 4116 
L 825 1625 
L 2419 1625 
L 2419 4116 
z
M 2253 4666 
L 3047 4666 
L 3047 1625 
L 3713 1625 
L 3713 1100 
L 3047 1100 
L 3047 0 
L 2419 0 
L 2419 1100 
L 313 1100 
L 313 1709 
L 2253 4666 
z
" transform="scale(0.015625)"/>
       </defs>
       <use xlink:href="#DejaVuSans-34"/>
       <use xlink:href="#DejaVuSans-30" transform="translate(63.623047 0)"/>
       <use xlink:href="#DejaVuSans-30" transform="translate(127.246094 0)"/>
      </g>
     </g>
    </g>
    <g id="xtick_6">
     <g id="line2d_6">
      <g>
       <use xlink:href="#me11dbe6b6a" x="360.110874" y="246.04" style="stroke: #000000; stroke-width: 0.8"/>
      </g>
     </g>
     <g id="text_6">
      <!-- 500 -->
      <g transform="translate(350.567124 260.638438) scale(0.1 -0.1)">
       <defs>
        <path id="DejaVuSans-35" d="M 691 4666 
L 3169 4666 
L 3169 4134 
L 1269 4134 
L 1269 2991 
Q 1406 3038 1543 3061 
Q 1681 3084 1819 3084 
Q 2600 3084 3056 2656 
Q 3513 2228 3513 1497 
Q 3513 744 3044 326 
Q 2575 -91 1722 -91 
Q 1428 -91 1123 -41 
Q 819 9 494 109 
L 494 744 
Q 775 591 1075 516 
Q 1375 441 1709 441 
Q 2250 441 2565 725 
Q 2881 1009 2881 1497 
Q 2881 1984 2565 2268 
Q 2250 2553 1709 2553 
Q 1456 2553 1204 2497 
Q 953 2441 691 2322 
L 691 4666 
z
" transform="scale(0.015625)"/>
       </defs>
       <use xlink:href="#DejaVuSans-35"/>
       <use xlink:href="#DejaVuSans-30" transform="translate(63.623047 0)"/>
       <use xlink:href="#DejaVuSans-30" transform="translate(127.246094 0)"/>
      </g>
     </g>
    </g>
    <g id="text_7">
     <!-- Test observation -->
     <g transform="translate(186.007031 274.316562) scale(0.1 -0.1)">
      <defs>
       <path id="DejaVuSans-54" d="M -19 4666 
L 3928 4666 
L 3928 4134 
L 2272 4134 
L 2272 0 
L 1638 0 
L 1638 4134 
L -19 4134 
L -19 4666 
z
" transform="scale(0.015625)"/>
       <path id="DejaVuSans-65" d="M 3597 1894 
L 3597 1613 
L 953 1613 
Q 991 1019 1311 708 
Q 1631 397 2203 397 
Q 2534 397 2845 478 
Q 3156 559 3463 722 
L 3463 178 
Q 3153 47 2828 -22 
Q 2503 -91 2169 -91 
Q 1331 -91 842 396 
Q 353 884 353 1716 
Q 353 2575 817 3079 
Q 1281 3584 2069 3584 
Q 2775 3584 3186 3129 
Q 3597 2675 3597 1894 
z
M 3022 2063 
Q 3016 2534 2758 2815 
Q 2500 3097 2075 3097 
Q 1594 3097 1305 2825 
Q 1016 2553 972 2059 
L 3022 2063 
z
" transform="scale(0.015625)"/>
       <path id="DejaVuSans-73" d="M 2834 3397 
L 2834 2853 
Q 2591 2978 2328 3040 
Q 2066 3103 1784 3103 
Q 1356 3103 1142 2972 
Q 928 2841 928 2578 
Q 928 2378 1081 2264 
Q 1234 2150 1697 2047 
L 1894 2003 
Q 2506 1872 2764 1633 
Q 3022 1394 3022 966 
Q 3022 478 2636 193 
Q 2250 -91 1575 -91 
Q 1294 -91 989 -36 
Q 684 19 347 128 
L 347 722 
Q 666 556 975 473 
Q 1284 391 1588 391 
Q 1994 391 2212 530 
Q 2431 669 2431 922 
Q 2431 1156 2273 1281 
Q 2116 1406 1581 1522 
L 1381 1569 
Q 847 1681 609 1914 
Q 372 2147 372 2553 
Q 372 3047 722 3315 
Q 1072 3584 1716 3584 
Q 2034 3584 2315 3537 
Q 2597 3491 2834 3397 
z
" transform="scale(0.015625)"/>
       <path id="DejaVuSans-74" d="M 1172 4494 
L 1172 3500 
L 2356 3500 
L 2356 3053 
L 1172 3053 
L 1172 1153 
Q 1172 725 1289 603 
Q 1406 481 1766 481 
L 2356 481 
L 2356 0 
L 1766 0 
Q 1100 0 847 248 
Q 594 497 594 1153 
L 594 3053 
L 172 3053 
L 172 3500 
L 594 3500 
L 594 4494 
L 1172 4494 
z
" transform="scale(0.015625)"/>
       <path id="DejaVuSans-20" transform="scale(0.015625)"/>
       <path id="DejaVuSans-6f" d="M 1959 3097 
Q 1497 3097 1228 2736 
Q 959 2375 959 1747 
Q 959 1119 1226 758 
Q 1494 397 1959 397 
Q 2419 397 2687 759 
Q 2956 1122 2956 1747 
Q 2956 2369 2687 2733 
Q 2419 3097 1959 3097 
z
M 1959 3584 
Q 2709 3584 3137 3096 
Q 3566 2609 3566 1747 
Q 3566 888 3137 398 
Q 2709 -91 1959 -91 
Q 1206 -91 779 398 
Q 353 888 353 1747 
Q 353 2609 779 3096 
Q 1206 3584 1959 3584 
z
" transform="scale(0.015625)"/>
       <path id="DejaVuSans-62" d="M 3116 1747 
Q 3116 2381 2855 2742 
Q 2594 3103 2138 3103 
Q 1681 3103 1420 2742 
Q 1159 2381 1159 1747 
Q 1159 1113 1420 752 
Q 1681 391 2138 391 
Q 2594 391 2855 752 
Q 3116 1113 3116 1747 
z
M 1159 2969 
Q 1341 3281 1617 3432 
Q 1894 3584 2278 3584 
Q 2916 3584 3314 3078 
Q 3713 2572 3713 1747 
Q 3713 922 3314 415 
Q 2916 -91 2278 -91 
Q 1894 -91 1617 61 
Q 1341 213 1159 525 
L 1159 0 
L 581 0 
L 581 4863 
L 1159 4863 
L 1159 2969 
z
" transform="scale(0.015625)"/>
       <path id="DejaVuSans-72" d="M 2631 2963 
Q 2534 3019 2420 3045 
Q 2306 3072 2169 3072 
Q 1681 3072 1420 2755 
Q 1159 2438 1159 1844 
L 1159 0 
L 581 0 
L 581 3500 
L 1159 3500 
L 1159 2956 
Q 1341 3275 1631 3429 
Q 1922 3584 2338 3584 
Q 2397 3584 2469 3576 
Q 2541 3569 2628 3553 
L 2631 2963 
z
" transform="scale(0.015625)"/>
       <path id="DejaVuSans-76" d="M 191 3500 
L 800 3500 
L 1894 563 
L 2988 3500 
L 3597 3500 
L 2284 0 
L 1503 0 
L 191 3500 
z
" transform="scale(0.015625)"/>
       <path id="DejaVuSans-61" d="M 2194 1759 
Q 1497 1759 1228 1600 
Q 959 1441 959 1056 
Q 959 750 1161 570 
Q 1363 391 1709 391 
Q 2188 391 2477 730 
Q 2766 1069 2766 1631 
L 2766 1759 
L 2194 1759 
z
M 3341 1997 
L 3341 0 
L 2766 0 
L 2766 531 
Q 2569 213 2275 61 
Q 1981 -91 1556 -91 
Q 1019 -91 701 211 
Q 384 513 384 1019 
Q 384 1609 779 1909 
Q 1175 2209 1959 2209 
L 2766 2209 
L 2766 2266 
Q 2766 2663 2505 2880 
Q 2244 3097 1772 3097 
Q 1472 3097 1187 3025 
Q 903 2953 641 2809 
L 641 3341 
Q 956 3463 1253 3523 
Q 1550 3584 1831 3584 
Q 2591 3584 2966 3190 
Q 3341 2797 3341 1997 
z
" transform="scale(0.015625)"/>
       <path id="DejaVuSans-69" d="M 603 3500 
L 1178 3500 
L 1178 0 
L 603 0 
L 603 3500 
z
M 603 4863 
L 1178 4863 
L 1178 4134 
L 603 4134 
L 603 4863 
z
" transform="scale(0.015625)"/>
       <path id="DejaVuSans-6e" d="M 3513 2113 
L 3513 0 
L 2938 0 
L 2938 2094 
Q 2938 2591 2744 2837 
Q 2550 3084 2163 3084 
Q 1697 3084 1428 2787 
Q 1159 2491 1159 1978 
L 1159 0 
L 581 0 
L 581 3500 
L 1159 3500 
L 1159 2956 
Q 1366 3272 1645 3428 
Q 1925 3584 2291 3584 
Q 2894 3584 3203 3211 
Q 3513 2838 3513 2113 
z
" transform="scale(0.015625)"/>
      </defs>
      <use xlink:href="#DejaVuSans-54"/>
      <use xlink:href="#DejaVuSans-65" transform="translate(44.083984 0)"/>
      <use xlink:href="#DejaVuSans-73" transform="translate(105.607422 0)"/>
      <use xlink:href="#DejaVuSans-74" transform="translate(157.707031 0)"/>
      <use xlink:href="#DejaVuSans-20" transform="translate(196.916016 0)"/>
      <use xlink:href="#DejaVuSans-6f" transform="translate(228.703125 0)"/>
      <use xlink:href="#DejaVuSans-62" transform="translate(289.884766 0)"/>
      <use xlink:href="#DejaVuSans-73" transform="translate(353.361328 0)"/>
      <use xlink:href="#DejaVuSans-65" transform="translate(405.460938 0)"/>
      <use xlink:href="#DejaVuSans-72" transform="translate(466.984375 0)"/>
      <use xlink:href="#DejaVuSans-76" transform="translate(508.097656 0)"/>
      <use xlink:href="#DejaVuSans-61" transform="translate(567.277344 0)"/>
      <use xlink:href="#DejaVuSans-74" transform="translate(628.556641 0)"/>
      <use xlink:href="#DejaVuSans-69" transform="translate(667.765625 0)"/>
      <use xlink:href="#DejaVuSans-6f" transform="translate(695.548828 0)"/>
      <use xlink:href="#DejaVuSans-6e" transform="translate(756.730469 0)"/>
     </g>
    </g>
   </g>
   <g id="matplotlib.axis_2">
    <g id="ytick_1">
     <g id="line2d_7">
      <defs>
       <path id="m512c4b2324" d="M 0 0 
L -3.5 0 
" style="stroke: #000000; stroke-width: 0.8"/>
      </defs>
      <g>
       <use xlink:href="#m512c4b2324" x="59.24" y="222.52444" style="stroke: #000000; stroke-width: 0.8"/>
      </g>
     </g>
     <g id="text_8">
      <!-- −100 -->
      <g transform="translate(24.772813 226.323658) scale(0.1 -0.1)">
       <defs>
        <path id="DejaVuSans-2212" d="M 678 2272 
L 4684 2272 
L 4684 1741 
L 678 1741 
L 678 2272 
z
" transform="scale(0.015625)"/>
       </defs>
       <use xlink:href="#DejaVuSans-2212"/>
       <use xlink:href="#DejaVuSans-31" transform="translate(83.789062 0)"/>
       <use xlink:href="#DejaVuSans-30" transform="translate(147.412109 0)"/>
       <use xlink:href="#DejaVuSans-30" transform="translate(211.035156 0)"/>
      </g>
     </g>
    </g>
    <g id="ytick_2">
     <g id="line2d_8">
      <g>
       <use xlink:href="#m512c4b2324" x="59.24" y="191.633972" style="stroke: #000000; stroke-width: 0.8"/>
      </g>
     </g>
     <g id="text_9">
      <!-- −50 -->
      <g transform="translate(31.135313 195.433191) scale(0.1 -0.1)">
       <use xlink:href="#DejaVuSans-2212"/>
       <use xlink:href="#DejaVuSans-35" transform="translate(83.789062 0)"/>
       <use xlink:href="#DejaVuSans-30" transform="translate(147.412109 0)"/>
      </g>
     </g>
    </g>
    <g id="ytick_3">
     <g id="line2d_9">
      <g>
       <use xlink:href="#m512c4b2324" x="59.24" y="160.743504" style="stroke: #000000; stroke-width: 0.8"/>
      </g>
     </g>
     <g id="text_10">
      <!-- 0 -->
      <g transform="translate(45.8775 164.542723) scale(0.1 -0.1)">
       <use xlink:href="#DejaVuSans-30"/>
      </g>
     </g>
    </g>
    <g id="ytick_4">
     <g id="line2d_10">
      <g>
       <use xlink:href="#m512c4b2324" x="59.24" y="129.853037" style="stroke: #000000; stroke-width: 0.8"/>
      </g>
     </g>
     <g id="text_11">
      <!-- 50 -->
      <g transform="translate(39.515 133.652255) scale(0.1 -0.1)">
       <use xlink:href="#DejaVuSans-35"/>
       <use xlink:href="#DejaVuSans-30" transform="translate(63.623047 0)"/>
      </g>
     </g>
    </g>
    <g id="ytick_5">
     <g id="line2d_11">
      <g>
       <use xlink:href="#m512c4b2324" x="59.24" y="98.962569" style="stroke: #000000; stroke-width: 0.8"/>
      </g>
     </g>
     <g id="text_12">
      <!-- 100 -->
      <g transform="translate(33.1525 102.761788) scale(0.1 -0.1)">
       <use xlink:href="#DejaVuSans-31"/>
       <use xlink:href="#DejaVuSans-30" transform="translate(63.623047 0)"/>
       <use xlink:href="#DejaVuSans-30" transform="translate(127.246094 0)"/>
      </g>
     </g>
    </g>
    <g id="ytick_6">
     <g id="line2d_12">
      <g>
       <use xlink:href="#m512c4b2324" x="59.24" y="68.072101" style="stroke: #000000; stroke-width: 0.8"/>
      </g>
     </g>
     <g id="text_13">
      <!-- 150 -->
      <g transform="translate(33.1525 71.87132) scale(0.1 -0.1)">
       <use xlink:href="#DejaVuSans-31"/>
       <use xlink:href="#DejaVuSans-35" transform="translate(63.623047 0)"/>
       <use xlink:href="#DejaVuSans-30" transform="translate(127.246094 0)"/>
      </g>
     </g>
    </g>
    <g id="ytick_7">
     <g id="line2d_13">
      <g>
       <use xlink:href="#m512c4b2324" x="59.24" y="37.181634" style="stroke: #000000; stroke-width: 0.8"/>
      </g>
     </g>
     <g id="text_14">
      <!-- 200 -->
      <g transform="translate(33.1525 40.980852) scale(0.1 -0.1)">
       <use xlink:href="#DejaVuSans-32"/>
       <use xlink:href="#DejaVuSans-30" transform="translate(63.623047 0)"/>
       <use xlink:href="#DejaVuSans-30" transform="translate(127.246094 0)"/>
      </g>
     </g>
    </g>
    <g id="text_15">
     <!-- LSTM residual (rial) -->
     <g transform="translate(18.693125 177.963202) rotate(-90) scale(0.1 -0.1)">
      <defs>
       <path id="DejaVuSans-4c" d="M 628 4666 
L 1259 4666 
L 1259 531 
L 3531 531 
L 3531 0 
L 628 0 
L 628 4666 
z
" transform="scale(0.015625)"/>
       <path id="DejaVuSans-53" d="M 3425 4513 
L 3425 3897 
Q 3066 4069 2747 4153 
Q 2428 4238 2131 4238 
Q 1616 4238 1336 4038 
Q 1056 3838 1056 3469 
Q 1056 3159 1242 3001 
Q 1428 2844 1947 2747 
L 2328 2669 
Q 3034 2534 3370 2195 
Q 3706 1856 3706 1288 
Q 3706 609 3251 259 
Q 2797 -91 1919 -91 
Q 1588 -91 1214 -16 
Q 841 59 441 206 
L 441 856 
Q 825 641 1194 531 
Q 1563 422 1919 422 
Q 2459 422 2753 634 
Q 3047 847 3047 1241 
Q 3047 1584 2836 1778 
Q 2625 1972 2144 2069 
L 1759 2144 
Q 1053 2284 737 2584 
Q 422 2884 422 3419 
Q 422 4038 858 4394 
Q 1294 4750 2059 4750 
Q 2388 4750 2728 4690 
Q 3069 4631 3425 4513 
z
" transform="scale(0.015625)"/>
       <path id="DejaVuSans-4d" d="M 628 4666 
L 1569 4666 
L 2759 1491 
L 3956 4666 
L 4897 4666 
L 4897 0 
L 4281 0 
L 4281 4097 
L 3078 897 
L 2444 897 
L 1241 4097 
L 1241 0 
L 628 0 
L 628 4666 
z
" transform="scale(0.015625)"/>
       <path id="DejaVuSans-64" d="M 2906 2969 
L 2906 4863 
L 3481 4863 
L 3481 0 
L 2906 0 
L 2906 525 
Q 2725 213 2448 61 
Q 2172 -91 1784 -91 
Q 1150 -91 751 415 
Q 353 922 353 1747 
Q 353 2572 751 3078 
Q 1150 3584 1784 3584 
Q 2172 3584 2448 3432 
Q 2725 3281 2906 2969 
z
M 947 1747 
Q 947 1113 1208 752 
Q 1469 391 1925 391 
Q 2381 391 2643 752 
Q 2906 1113 2906 1747 
Q 2906 2381 2643 2742 
Q 2381 3103 1925 3103 
Q 1469 3103 1208 2742 
Q 947 2381 947 1747 
z
" transform="scale(0.015625)"/>
       <path id="DejaVuSans-75" d="M 544 1381 
L 544 3500 
L 1119 3500 
L 1119 1403 
Q 1119 906 1312 657 
Q 1506 409 1894 409 
Q 2359 409 2629 706 
Q 2900 1003 2900 1516 
L 2900 3500 
L 3475 3500 
L 3475 0 
L 2900 0 
L 2900 538 
Q 2691 219 2414 64 
Q 2138 -91 1772 -91 
Q 1169 -91 856 284 
Q 544 659 544 1381 
z
M 1991 3584 
L 1991 3584 
z
" transform="scale(0.015625)"/>
       <path id="DejaVuSans-6c" d="M 603 4863 
L 1178 4863 
L 1178 0 
L 603 0 
L 603 4863 
z
" transform="scale(0.015625)"/>
       <path id="DejaVuSans-28" d="M 1984 4856 
Q 1566 4138 1362 3434 
Q 1159 2731 1159 2009 
Q 1159 1288 1364 580 
Q 1569 -128 1984 -844 
L 1484 -844 
Q 1016 -109 783 600 
Q 550 1309 550 2009 
Q 550 2706 781 3412 
Q 1013 4119 1484 4856 
L 1984 4856 
z
" transform="scale(0.015625)"/>
       <path id="DejaVuSans-29" d="M 513 4856 
L 1013 4856 
Q 1481 4119 1714 3412 
Q 1947 2706 1947 2009 
Q 1947 1309 1714 600 
Q 1481 -109 1013 -844 
L 513 -844 
Q 928 -128 1133 580 
Q 1338 1288 1338 2009 
Q 1338 2731 1133 3434 
Q 928 4138 513 4856 
z
" transform="scale(0.015625)"/>
      </defs>
      <use xlink:href="#DejaVuSans-4c"/>
      <use xlink:href="#DejaVuSans-53" transform="translate(55.712891 0)"/>
      <use xlink:href="#DejaVuSans-54" transform="translate(119.189453 0)"/>
      <use xlink:href="#DejaVuSans-4d" transform="translate(180.273438 0)"/>
      <use xlink:href="#DejaVuSans-20" transform="translate(266.552734 0)"/>
      <use xlink:href="#DejaVuSans-72" transform="translate(298.339844 0)"/>
      <use xlink:href="#DejaVuSans-65" transform="translate(337.203125 0)"/>
      <use xlink:href="#DejaVuSans-73" transform="translate(398.726562 0)"/>
      <use xlink:href="#DejaVuSans-69" transform="translate(450.826172 0)"/>
      <use xlink:href="#DejaVuSans-64" transform="translate(478.609375 0)"/>
      <use xlink:href="#DejaVuSans-75" transform="translate(542.085938 0)"/>
      <use xlink:href="#DejaVuSans-61" transform="translate(605.464844 0)"/>
      <use xlink:href="#DejaVuSans-6c" transform="translate(666.744141 0)"/>
      <use xlink:href="#DejaVuSans-20" transform="translate(694.527344 0)"/>
      <use xlink:href="#DejaVuSans-28" transform="translate(726.314453 0)"/>
      <use xlink:href="#DejaVuSans-72" transform="translate(765.328125 0)"/>
      <use xlink:href="#DejaVuSans-69" transform="translate(806.441406 0)"/>
      <use xlink:href="#DejaVuSans-61" transform="translate(834.224609 0)"/>
      <use xlink:href="#DejaVuSans-6c" transform="translate(895.503906 0)"/>
      <use xlink:href="#DejaVuSans-29" transform="translate(923.287109 0)"/>
     </g>
    </g>
   </g>
   <g id="line2d_14">
    <path d="M 74.492045 105.330945 
L 75.063283 157.608205 
L 75.634521 153.995853 
L 76.205758 148.53931 
L 76.776996 144.214379 
L 77.348234 151.68626 
L 77.919471 142.465021 
L 78.490709 145.095417 
L 79.061947 129.383495 
L 79.633184 177.66407 
L 80.204422 154.090117 
L 80.77566 149.549082 
L 81.346897 182.348061 
L 81.918135 135.418978 
L 82.489373 135.305039 
L 83.06061 149.911836 
L 83.631848 104.561835 
L 84.203086 156.722534 
L 84.774323 156.933912 
L 85.345561 156.93471 
L 85.916799 147.959681 
L 86.488036 135.798467 
L 87.059274 160.108211 
L 87.630512 150.869139 
L 88.201749 211.389385 
L 88.772987 160.20513 
L 89.344225 157.413489 
L 89.915462 149.015857 
L 90.4867 144.714058 
L 91.057938 182.026804 
L 91.629175 142.935811 
L 92.200413 161.870302 
L 92.77165 130.790172 
L 93.342888 178.309301 
L 93.914126 145.320285 
L 94.485363 165.759849 
L 95.056601 103.071654 
L 95.627839 147.941174 
L 96.199076 167.309573 
L 96.770314 148.373275 
L 97.341552 182.302626 
L 97.912789 146.84787 
L 99.055265 158.978164 
L 99.626502 129.051611 
L 100.19774 147.589714 
L 100.768978 147.53438 
L 101.340215 145.866989 
L 101.911453 137.749459 
L 102.482691 153.752873 
L 103.053928 121.739972 
L 103.625166 149.103443 
L 104.196404 124.053153 
L 104.767641 159.508685 
L 105.338879 137.140966 
L 105.910117 171.122465 
L 106.481354 153.242 
L 107.052592 186.82868 
L 107.62383 149.601745 
L 108.195067 128.762228 
L 108.766305 161.111415 
L 109.337543 146.550753 
L 109.90878 146.400175 
L 110.480018 187.623799 
L 111.051256 140.672665 
L 111.622493 172.542757 
L 112.193731 170.820447 
L 112.764969 148.835779 
L 113.336206 146.011963 
L 113.907444 166.622296 
L 114.478681 147.03087 
L 115.049919 144.569494 
L 115.621157 158.238833 
L 116.192394 167.75769 
L 116.763632 150.704514 
L 117.33487 175.99816 
L 117.906107 141.115914 
L 119.048583 157.14836 
L 119.61982 154.31146 
L 120.191058 145.416388 
L 120.762296 155.261515 
L 121.333533 162.026942 
L 121.904771 149.309441 
L 122.476009 166.322719 
L 123.047246 145.253542 
L 123.618484 153.878565 
L 124.189722 132.637498 
L 124.760959 159.346228 
L 125.332197 149.416427 
L 125.903435 148.90814 
L 126.474672 124.4825 
L 127.04591 157.837253 
L 127.617148 154.132832 
L 128.188385 156.369843 
L 128.759623 176.306505 
L 129.330861 162.779743 
L 129.902098 135.972655 
L 130.473336 152.651252 
L 131.044574 114.909702 
L 131.615811 164.960488 
L 132.187049 143.053262 
L 132.758287 153.717866 
L 133.329524 156.474244 
L 133.900762 152.568836 
L 134.471999 164.381369 
L 135.043237 157.857402 
L 135.614475 141.460512 
L 136.185712 156.748044 
L 136.75695 147.50805 
L 137.328188 161.202783 
L 137.899425 113.930979 
L 138.470663 159.98067 
L 139.041901 159.212874 
L 139.613138 119.758717 
L 140.184376 157.959289 
L 140.755614 158.82975 
L 141.326851 159.255767 
L 141.898089 156.021294 
L 142.469327 136.768064 
L 143.040564 171.10904 
L 143.611802 150.951199 
L 144.18304 151.626854 
L 144.754277 128.276451 
L 145.325515 145.383558 
L 145.896753 150.557482 
L 146.46799 151.769537 
L 147.039228 128.597606 
L 147.610466 155.976113 
L 148.181703 151.655349 
L 148.752941 153.148443 
L 149.324179 168.441521 
L 149.895416 155.120583 
L 150.466654 131.723354 
L 151.037892 159.919171 
L 151.609129 158.620049 
L 152.180367 160.407546 
L 152.751605 144.9248 
L 153.322842 179.116369 
L 153.89408 145.633801 
L 154.465318 176.777262 
L 155.036555 147.41712 
L 155.607793 132.875492 
L 156.17903 179.922492 
L 156.750268 163.13834 
L 157.321506 179.371784 
L 157.892743 163.383215 
L 159.035219 153.896318 
L 159.606456 154.214961 
L 160.177694 148.577443 
L 161.320169 161.557942 
L 161.891407 149.331279 
L 162.462645 156.039454 
L 163.033882 152.647283 
L 163.60512 157.433846 
L 164.176358 147.456338 
L 165.318833 155.781521 
L 165.890071 154.043704 
L 166.461308 156.214131 
L 167.032546 173.981378 
L 167.603784 155.248534 
L 168.175021 155.982653 
L 168.746259 164.464344 
L 169.317497 124.559993 
L 169.888734 159.387018 
L 170.459972 158.363167 
L 171.03121 158.598376 
L 171.602447 159.071698 
L 172.173685 178.729539 
L 172.744923 158.398129 
L 173.31616 168.949677 
L 173.887398 167.235184 
L 174.458636 159.762161 
L 175.029873 149.752444 
L 175.601111 153.563835 
L 176.172348 179.142625 
L 176.743586 172.503809 
L 177.314824 158.288666 
L 177.886061 176.827016 
L 178.457299 156.904268 
L 179.028537 152.57379 
L 179.599774 151.733143 
L 180.171012 182.043977 
L 180.74225 162.060968 
L 181.313487 160.339118 
L 181.884725 158.171867 
L 182.455963 186.132252 
L 183.0272 164.114742 
L 183.598438 159.970798 
L 184.169676 157.148425 
L 184.740913 152.408165 
L 185.312151 136.810748 
L 185.883389 145.514479 
L 186.454626 160.389234 
L 187.025864 165.621002 
L 187.597102 180.15937 
L 188.168339 136.676111 
L 189.310815 189.834394 
L 189.882052 164.504629 
L 190.45329 163.199331 
L 191.024528 160.397527 
L 191.595765 137.963556 
L 192.738241 177.548737 
L 193.309478 143.39952 
L 193.880716 163.245318 
L 194.451954 160.477218 
L 195.023191 159.982106 
L 195.594429 155.209529 
L 196.165666 187.1658 
L 196.736904 177.45892 
L 197.308142 164.853801 
L 197.879379 159.853389 
L 198.450617 127.53095 
L 199.021855 160.385359 
L 199.593092 147.063821 
L 200.16433 163.194184 
L 200.735568 140.688362 
L 201.306805 158.070593 
L 201.878043 157.289909 
L 202.449281 126.963664 
L 203.020518 164.009228 
L 203.591756 155.781606 
L 204.162994 155.502964 
L 204.734231 157.752475 
L 205.305469 135.827924 
L 205.876707 159.795121 
L 206.447944 159.577727 
L 207.019182 159.523036 
L 207.59042 161.46486 
L 208.161657 139.689934 
L 208.732895 162.908573 
L 209.304133 154.235644 
L 209.87537 159.755749 
L 210.446608 155.969646 
L 211.017846 162.738553 
L 211.589083 191.982662 
L 212.160321 163.41996 
L 212.731559 154.068144 
L 213.302796 159.534801 
L 213.874034 146.251067 
L 214.445272 161.40203 
L 215.016509 141.095794 
L 215.587747 153.479208 
L 216.158985 142.710128 
L 216.730222 167.714829 
L 217.30146 153.251513 
L 217.872697 168.851143 
L 218.443935 148.276073 
L 219.015173 192.062248 
L 219.58641 161.028862 
L 220.157648 159.462612 
L 220.728886 155.704712 
L 221.300123 185.253161 
L 221.871361 164.745777 
L 222.442599 163.012326 
L 223.013836 157.77402 
L 223.585074 188.436713 
L 224.156312 168.145896 
L 225.298787 159.898008 
L 225.870025 186.984416 
L 226.441262 155.678028 
L 227.0125 141.542117 
L 227.583738 167.972402 
L 228.154975 152.659541 
L 228.726213 153.095796 
L 229.297451 161.541294 
L 229.868688 148.566778 
L 230.439926 148.630342 
L 231.011164 197.720107 
L 231.582401 163.290375 
L 232.153639 158.348059 
L 232.724877 156.219121 
L 233.296114 196.109301 
L 233.867352 164.800961 
L 234.43859 159.142002 
L 235.009827 157.68373 
L 235.581065 177.269665 
L 236.152303 184.125788 
L 236.72354 161.666918 
L 237.294778 157.421163 
L 237.866015 190.554621 
L 238.437253 163.115196 
L 239.008491 159.882216 
L 239.579728 158.471798 
L 240.150966 203.234193 
L 240.722204 127.016466 
L 241.293441 115.110494 
L 242.435917 193.423901 
L 243.007154 151.409898 
L 243.578392 152.846393 
L 244.14963 163.467511 
L 244.720867 204.295815 
L 245.292105 159.62573 
L 245.863343 166.948589 
L 246.43458 159.953317 
L 247.005818 158.063253 
L 247.577056 133.900752 
L 248.148293 163.687364 
L 248.719531 160.860691 
L 249.290769 163.958024 
L 249.862006 124.400673 
L 250.433244 150.098614 
L 251.004482 170.701069 
L 251.575719 176.153417 
L 252.146957 177.514297 
L 252.718195 159.4419 
L 253.289432 158.292269 
L 253.86067 185.933398 
L 254.431908 170.516969 
L 255.003145 162.858018 
L 255.574383 157.642864 
L 256.145621 191.933246 
L 256.716858 123.843929 
L 257.288096 160.072531 
L 257.859334 170.855622 
L 258.430571 186.800401 
L 259.001809 179.87022 
L 259.573046 150.931129 
L 260.144284 143.399607 
L 260.715522 168.227938 
L 261.286759 148.884373 
L 261.857997 149.996913 
L 262.429235 147.058115 
L 263.000472 121.250173 
L 263.57171 164.782244 
L 264.142948 145.721358 
L 264.714185 192.2134 
L 265.285423 147.811164 
L 265.856661 92.793687 
L 266.427898 153.536885 
L 266.999136 197.009314 
L 267.570374 161.176576 
L 268.141611 161.322821 
L 268.712849 155.136888 
L 269.284087 171.490349 
L 269.855324 130.918253 
L 270.426562 168.381833 
L 270.9978 146.724765 
L 271.569037 135.285309 
L 272.140275 133.785064 
L 272.711513 152.735528 
L 273.28275 151.559425 
L 273.853988 153.899792 
L 274.425226 174.006787 
L 274.996463 134.583445 
L 275.567701 154.989357 
L 276.138939 156.073917 
L 276.710176 145.135855 
L 277.281414 159.366129 
L 277.852652 166.725881 
L 278.423889 167.148493 
L 278.995127 124.482334 
L 279.566364 116.734402 
L 280.137602 160.515507 
L 280.70884 150.042678 
L 281.280077 119.13459 
L 281.851315 158.668987 
L 282.422553 153.414965 
L 282.99379 153.263683 
L 283.565028 111.600371 
L 284.136266 182.111439 
L 284.707503 147.649745 
L 285.278741 183.942376 
L 285.849979 137.750753 
L 286.421216 178.766231 
L 286.992454 152.547864 
L 287.563692 150.719996 
L 288.134929 134.617475 
L 288.706167 154.275007 
L 289.277405 148.947619 
L 289.848642 140.82719 
L 290.41988 126.789985 
L 290.991118 212.672593 
L 291.562355 153.978004 
L 292.133593 158.727069 
L 292.704831 150.426185 
L 293.276068 24.219593 
L 293.847306 88.290153 
L 294.418544 195.360294 
L 294.989781 127.689271 
L 295.561019 155.907165 
L 296.132257 154.285006 
L 296.703494 176.522807 
L 297.274732 166.777149 
L 297.84597 154.928212 
L 298.417207 146.218934 
L 298.988445 103.873886 
L 299.559682 158.069558 
L 300.13092 144.970966 
L 300.702158 141.275526 
L 301.273395 110.052565 
L 301.844633 154.724287 
L 302.415871 144.028447 
L 302.987108 143.021705 
L 303.558346 181.044418 
L 304.129584 156.388085 
L 304.700821 152.486499 
L 305.272059 182.417417 
L 305.843297 154.541804 
L 306.414534 154.116284 
L 306.985772 194.482265 
L 307.55701 165.437653 
L 308.128247 149.813455 
L 308.699485 167.967516 
L 309.270723 168.958521 
L 309.84196 180.434612 
L 310.413198 154.13775 
L 310.984436 154.231494 
L 311.555673 197.717516 
L 312.126911 161.296631 
L 313.269386 157.839823 
L 313.840624 197.890963 
L 314.411862 147.699217 
L 314.983099 179.107682 
L 315.554337 159.999596 
L 316.125575 191.383683 
L 316.696812 128.871382 
L 317.26805 122.304808 
L 317.839288 149.22345 
L 318.410525 205.587955 
L 318.981763 143.933987 
L 319.553001 178.597041 
L 320.124238 152.634481 
L 320.695476 193.115017 
L 321.266713 165.903946 
L 322.409189 159.254019 
L 322.980426 203.795182 
L 323.551664 164.778012 
L 324.122902 159.768342 
L 324.694139 158.365729 
L 325.265377 172.468523 
L 325.836615 127.230501 
L 326.407852 148.363406 
L 326.97909 145.571008 
L 328.121565 199.690201 
L 328.692803 122.327026 
L 329.264041 122.145113 
L 329.835278 155.964178 
L 330.406516 162.017744 
L 330.977754 161.358481 
L 331.548991 147.058221 
L 332.120229 160.773383 
L 332.691467 159.025302 
L 333.262704 158.57634 
L 333.833942 128.863119 
L 334.40518 180.00056 
L 334.976417 150.307631 
L 335.547655 161.706199 
L 336.118893 160.854947 
L 336.69013 161.39578 
L 337.261368 168.115766 
L 337.832606 141.049434 
L 338.403843 180.893993 
L 338.975081 155.869841 
L 339.546319 155.498568 
L 340.117556 153.522921 
L 340.688794 204.235855 
L 341.260031 164.452662 
L 341.831269 160.409489 
L 342.402507 154.374508 
L 342.973744 203.330417 
L 343.544982 164.631539 
L 344.11622 159.774791 
L 344.687457 156.42916 
L 345.258695 196.920742 
L 345.829933 158.548298 
L 346.40117 157.38667 
L 346.972408 154.300358 
L 347.543646 200.69249 
L 348.114883 158.943618 
L 348.686121 158.416054 
L 349.257359 155.577244 
L 349.828596 206.147292 
L 350.399834 161.890644 
L 350.971072 159.806052 
L 351.542309 146.238284 
L 352.113547 221.044428 
L 352.684785 164.636009 
L 353.256022 163.498732 
L 353.82726 162.66942 
L 354.398498 155.141208 
L 354.969735 194.170756 
L 355.540973 161.920726 
L 356.112211 162.909852 
L 356.683448 159.416441 
L 357.254686 139.411844 
L 357.825924 111.124816 
L 358.968399 183.195653 
L 359.539637 104.579996 
L 360.110874 156.966224 
L 360.682112 159.27526 
L 361.25335 137.846689 
L 361.824587 186.130366 
L 362.395825 167.516095 
L 362.967062 162.726347 
L 363.5383 155.09087 
L 364.109538 121.670595 
L 365.252013 151.818519 
L 365.823251 170.074326 
L 366.394488 235.477123 
L 366.965726 169.899143 
L 367.536964 158.230632 
L 368.108201 151.466725 
L 368.679439 83.547818 
L 369.250677 158.340829 
L 369.821914 175.24039 
L 370.393152 148.81407 
L 370.96439 209.124891 
L 371.535627 171.216046 
L 372.106865 158.785599 
L 372.678103 150.027837 
L 373.24934 188.657074 
L 373.820578 159.779314 
L 374.391816 156.762317 
L 374.963053 152.735287 
L 375.534291 211.188407 
L 376.105529 167.015632 
L 376.676766 160.13869 
L 377.248004 155.988726 
L 377.819242 210.1391 
L 378.390479 162.30836 
L 379.532955 153.822628 
L 379.532955 153.822628 
" clip-path="url(#p5fc5b0e9ac)" style="fill: none; stroke: #1f77b4; stroke-width: 1.5; stroke-linecap: square"/>
   </g>
   <g id="line2d_15">
    <path d="M 59.24 160.743504 
L 394.785 160.743504 
" clip-path="url(#p5fc5b0e9ac)" style="fill: none; stroke: #000000; stroke-linecap: square"/>
   </g>
   <g id="patch_3">
    <path d="M 59.24 246.04 
L 59.24 13.656716 
" style="fill: none; stroke: #000000; stroke-width: 0.8; stroke-linejoin: miter; stroke-linecap: square"/>
   </g>
   <g id="patch_4">
    <path d="M 394.785 246.04 
L 394.785 13.656716 
" style="fill: none; stroke: #000000; stroke-width: 0.8; stroke-linejoin: miter; stroke-linecap: square"/>
   </g>
   <g id="patch_5">
    <path d="M 59.24 246.04 
L 394.785 246.04 
" style="fill: none; stroke: #000000; stroke-width: 0.8; stroke-linejoin: miter; stroke-linecap: square"/>
   </g>
   <g id="patch_6">
    <path d="M 59.24 13.656716 
L 394.785 13.656716 
" style="fill: none; stroke: #000000; stroke-width: 0.8; stroke-linejoin: miter; stroke-linecap: square"/>
   </g>
  </g>
  <g id="axes_2">
   <g id="patch_7">
    <path d="M 445.655 246.04 
L 781.2 246.04 
L 781.2 13.656716 
L 445.655 13.656716 
z
" style="fill: #ffffff"/>
   </g>
   <g id="patch_8">
    <path d="M 460.907045 246.04 
L 471.075076 246.04 
L 471.075076 244.388378 
L 460.907045 244.388378 
z
" clip-path="url(#p854e5af815)" style="fill: #1f77b4"/>
   </g>
   <g id="patch_9">
    <path d="M 471.075076 246.04 
L 481.243106 246.04 
L 481.243106 246.04 
L 471.075076 246.04 
z
" clip-path="url(#p854e5af815)" style="fill: #1f77b4"/>
   </g>
   <g id="patch_10">
    <path d="M 481.243106 246.04 
L 491.411136 246.04 
L 491.411136 244.388378 
L 481.243106 244.388378 
z
" clip-path="url(#p854e5af815)" style="fill: #1f77b4"/>
   </g>
   <g id="patch_11">
    <path d="M 491.411136 246.04 
L 501.579167 246.04 
L 501.579167 237.781888 
L 491.411136 237.781888 
z
" clip-path="url(#p854e5af815)" style="fill: #1f77b4"/>
   </g>
   <g id="patch_12">
    <path d="M 501.579167 246.04 
L 511.747197 246.04 
L 511.747197 232.82702 
L 501.579167 232.82702 
z
" clip-path="url(#p854e5af815)" style="fill: #1f77b4"/>
   </g>
   <g id="patch_13">
    <path d="M 511.747197 246.04 
L 521.915227 246.04 
L 521.915227 227.872153 
L 511.747197 227.872153 
z
" clip-path="url(#p854e5af815)" style="fill: #1f77b4"/>
   </g>
   <g id="patch_14">
    <path d="M 521.915227 246.04 
L 532.083258 246.04 
L 532.083258 221.265663 
L 521.915227 221.265663 
z
" clip-path="url(#p854e5af815)" style="fill: #1f77b4"/>
   </g>
   <g id="patch_15">
    <path d="M 532.083258 246.04 
L 542.251288 246.04 
L 542.251288 209.704305 
L 532.083258 209.704305 
z
" clip-path="url(#p854e5af815)" style="fill: #1f77b4"/>
   </g>
   <g id="patch_16">
    <path d="M 542.251288 246.04 
L 552.419318 246.04 
L 552.419318 206.40106 
L 542.251288 206.40106 
z
" clip-path="url(#p854e5af815)" style="fill: #1f77b4"/>
   </g>
   <g id="patch_17">
    <path d="M 552.419318 246.04 
L 562.587348 246.04 
L 562.587348 184.929968 
L 552.419318 184.929968 
z
" clip-path="url(#p854e5af815)" style="fill: #1f77b4"/>
   </g>
   <g id="patch_18">
    <path d="M 562.587348 246.04 
L 572.755379 246.04 
L 572.755379 24.722587 
L 562.587348 24.722587 
z
" clip-path="url(#p854e5af815)" style="fill: #1f77b4"/>
   </g>
   <g id="patch_19">
    <path d="M 572.755379 246.04 
L 582.923409 246.04 
L 582.923409 56.103414 
L 572.755379 56.103414 
z
" clip-path="url(#p854e5af815)" style="fill: #1f77b4"/>
   </g>
   <g id="patch_20">
    <path d="M 582.923409 246.04 
L 593.091439 246.04 
L 593.091439 118.865069 
L 582.923409 118.865069 
z
" clip-path="url(#p854e5af815)" style="fill: #1f77b4"/>
   </g>
   <g id="patch_21">
    <path d="M 593.091439 246.04 
L 603.25947 246.04 
L 603.25947 208.052683 
L 593.091439 208.052683 
z
" clip-path="url(#p854e5af815)" style="fill: #1f77b4"/>
   </g>
   <g id="patch_22">
    <path d="M 603.25947 246.04 
L 613.4275 246.04 
L 613.4275 214.659173 
L 603.25947 214.659173 
z
" clip-path="url(#p854e5af815)" style="fill: #1f77b4"/>
   </g>
   <g id="patch_23">
    <path d="M 613.4275 246.04 
L 623.59553 246.04 
L 623.59553 214.659173 
L 613.4275 214.659173 
z
" clip-path="url(#p854e5af815)" style="fill: #1f77b4"/>
   </g>
   <g id="patch_24">
    <path d="M 623.59553 246.04 
L 633.763561 246.04 
L 633.763561 231.175398 
L 623.59553 231.175398 
z
" clip-path="url(#p854e5af815)" style="fill: #1f77b4"/>
   </g>
   <g id="patch_25">
    <path d="M 633.763561 246.04 
L 643.931591 246.04 
L 643.931591 236.130265 
L 633.763561 236.130265 
z
" clip-path="url(#p854e5af815)" style="fill: #1f77b4"/>
   </g>
   <g id="patch_26">
    <path d="M 643.931591 246.04 
L 654.099621 246.04 
L 654.099621 237.781888 
L 643.931591 237.781888 
z
" clip-path="url(#p854e5af815)" style="fill: #1f77b4"/>
   </g>
   <g id="patch_27">
    <path d="M 654.099621 246.04 
L 664.267652 246.04 
L 664.267652 246.04 
L 654.099621 246.04 
z
" clip-path="url(#p854e5af815)" style="fill: #1f77b4"/>
   </g>
   <g id="patch_28">
    <path d="M 664.267652 246.04 
L 674.435682 246.04 
L 674.435682 242.736755 
L 664.267652 242.736755 
z
" clip-path="url(#p854e5af815)" style="fill: #1f77b4"/>
   </g>
   <g id="patch_29">
    <path d="M 674.435682 246.04 
L 684.603712 246.04 
L 684.603712 244.388378 
L 674.435682 244.388378 
z
" clip-path="url(#p854e5af815)" style="fill: #1f77b4"/>
   </g>
   <g id="patch_30">
    <path d="M 684.603712 246.04 
L 694.771742 246.04 
L 694.771742 246.04 
L 684.603712 246.04 
z
" clip-path="url(#p854e5af815)" style="fill: #1f77b4"/>
   </g>
   <g id="patch_31">
    <path d="M 694.771742 246.04 
L 704.939773 246.04 
L 704.939773 246.04 
L 694.771742 246.04 
z
" clip-path="url(#p854e5af815)" style="fill: #1f77b4"/>
   </g>
   <g id="patch_32">
    <path d="M 704.939773 246.04 
L 715.107803 246.04 
L 715.107803 246.04 
L 704.939773 246.04 
z
" clip-path="url(#p854e5af815)" style="fill: #1f77b4"/>
   </g>
   <g id="patch_33">
    <path d="M 715.107803 246.04 
L 725.275833 246.04 
L 725.275833 246.04 
L 715.107803 246.04 
z
" clip-path="url(#p854e5af815)" style="fill: #1f77b4"/>
   </g>
   <g id="patch_34">
    <path d="M 725.275833 246.04 
L 735.443864 246.04 
L 735.443864 246.04 
L 725.275833 246.04 
z
" clip-path="url(#p854e5af815)" style="fill: #1f77b4"/>
   </g>
   <g id="patch_35">
    <path d="M 735.443864 246.04 
L 745.611894 246.04 
L 745.611894 246.04 
L 735.443864 246.04 
z
" clip-path="url(#p854e5af815)" style="fill: #1f77b4"/>
   </g>
   <g id="patch_36">
    <path d="M 745.611894 246.04 
L 755.779924 246.04 
L 755.779924 246.04 
L 745.611894 246.04 
z
" clip-path="url(#p854e5af815)" style="fill: #1f77b4"/>
   </g>
   <g id="patch_37">
    <path d="M 755.779924 246.04 
L 765.947955 246.04 
L 765.947955 244.388378 
L 755.779924 244.388378 
z
" clip-path="url(#p854e5af815)" style="fill: #1f77b4"/>
   </g>
   <g id="matplotlib.axis_3">
    <g id="xtick_7">
     <g id="line2d_16">
      <g>
       <use xlink:href="#me11dbe6b6a" x="479.609803" y="246.04" style="stroke: #000000; stroke-width: 0.8"/>
      </g>
     </g>
     <g id="text_16">
      <!-- −100 -->
      <g transform="translate(465.87621 260.638438) scale(0.1 -0.1)">
       <use xlink:href="#DejaVuSans-2212"/>
       <use xlink:href="#DejaVuSans-31" transform="translate(83.789062 0)"/>
       <use xlink:href="#DejaVuSans-30" transform="translate(147.412109 0)"/>
       <use xlink:href="#DejaVuSans-30" transform="translate(211.035156 0)"/>
      </g>
     </g>
    </g>
    <g id="xtick_8">
     <g id="line2d_17">
      <g>
       <use xlink:href="#me11dbe6b6a" x="524.21345" y="246.04" style="stroke: #000000; stroke-width: 0.8"/>
      </g>
     </g>
     <g id="text_17">
      <!-- −50 -->
      <g transform="translate(513.661107 260.638438) scale(0.1 -0.1)">
       <use xlink:href="#DejaVuSans-2212"/>
       <use xlink:href="#DejaVuSans-35" transform="translate(83.789062 0)"/>
       <use xlink:href="#DejaVuSans-30" transform="translate(147.412109 0)"/>
      </g>
     </g>
    </g>
    <g id="xtick_9">
     <g id="line2d_18">
      <g>
       <use xlink:href="#me11dbe6b6a" x="568.817098" y="246.04" style="stroke: #000000; stroke-width: 0.8"/>
      </g>
     </g>
     <g id="text_18">
      <!-- 0 -->
      <g transform="translate(565.635848 260.638438) scale(0.1 -0.1)">
       <use xlink:href="#DejaVuSans-30"/>
      </g>
     </g>
    </g>
    <g id="xtick_10">
     <g id="line2d_19">
      <g>
       <use xlink:href="#me11dbe6b6a" x="613.420745" y="246.04" style="stroke: #000000; stroke-width: 0.8"/>
      </g>
     </g>
     <g id="text_19">
      <!-- 50 -->
      <g transform="translate(607.058245 260.638438) scale(0.1 -0.1)">
       <use xlink:href="#DejaVuSans-35"/>
       <use xlink:href="#DejaVuSans-30" transform="translate(63.623047 0)"/>
      </g>
     </g>
    </g>
    <g id="xtick_11">
     <g id="line2d_20">
      <g>
       <use xlink:href="#me11dbe6b6a" x="658.024392" y="246.04" style="stroke: #000000; stroke-width: 0.8"/>
      </g>
     </g>
     <g id="text_20">
      <!-- 100 -->
      <g transform="translate(648.480642 260.638438) scale(0.1 -0.1)">
       <use xlink:href="#DejaVuSans-31"/>
       <use xlink:href="#DejaVuSans-30" transform="translate(63.623047 0)"/>
       <use xlink:href="#DejaVuSans-30" transform="translate(127.246094 0)"/>
      </g>
     </g>
    </g>
    <g id="xtick_12">
     <g id="line2d_21">
      <g>
       <use xlink:href="#me11dbe6b6a" x="702.628039" y="246.04" style="stroke: #000000; stroke-width: 0.8"/>
      </g>
     </g>
     <g id="text_21">
      <!-- 150 -->
      <g transform="translate(693.084289 260.638438) scale(0.1 -0.1)">
       <use xlink:href="#DejaVuSans-31"/>
       <use xlink:href="#DejaVuSans-35" transform="translate(63.623047 0)"/>
       <use xlink:href="#DejaVuSans-30" transform="translate(127.246094 0)"/>
      </g>
     </g>
    </g>
    <g id="xtick_13">
     <g id="line2d_22">
      <g>
       <use xlink:href="#me11dbe6b6a" x="747.231686" y="246.04" style="stroke: #000000; stroke-width: 0.8"/>
      </g>
     </g>
     <g id="text_22">
      <!-- 200 -->
      <g transform="translate(737.687936 260.638438) scale(0.1 -0.1)">
       <use xlink:href="#DejaVuSans-32"/>
       <use xlink:href="#DejaVuSans-30" transform="translate(63.623047 0)"/>
       <use xlink:href="#DejaVuSans-30" transform="translate(127.246094 0)"/>
      </g>
     </g>
    </g>
    <g id="text_23">
     <!-- Residual (rial) -->
     <g transform="translate(578.923594 274.316562) scale(0.1 -0.1)">
      <defs>
       <path id="DejaVuSans-52" d="M 2841 2188 
Q 3044 2119 3236 1894 
Q 3428 1669 3622 1275 
L 4263 0 
L 3584 0 
L 2988 1197 
Q 2756 1666 2539 1819 
Q 2322 1972 1947 1972 
L 1259 1972 
L 1259 0 
L 628 0 
L 628 4666 
L 2053 4666 
Q 2853 4666 3247 4331 
Q 3641 3997 3641 3322 
Q 3641 2881 3436 2590 
Q 3231 2300 2841 2188 
z
M 1259 4147 
L 1259 2491 
L 2053 2491 
Q 2509 2491 2742 2702 
Q 2975 2913 2975 3322 
Q 2975 3731 2742 3939 
Q 2509 4147 2053 4147 
L 1259 4147 
z
" transform="scale(0.015625)"/>
      </defs>
      <use xlink:href="#DejaVuSans-52"/>
      <use xlink:href="#DejaVuSans-65" transform="translate(64.982422 0)"/>
      <use xlink:href="#DejaVuSans-73" transform="translate(126.505859 0)"/>
      <use xlink:href="#DejaVuSans-69" transform="translate(178.605469 0)"/>
      <use xlink:href="#DejaVuSans-64" transform="translate(206.388672 0)"/>
      <use xlink:href="#DejaVuSans-75" transform="translate(269.865234 0)"/>
      <use xlink:href="#DejaVuSans-61" transform="translate(333.244141 0)"/>
      <use xlink:href="#DejaVuSans-6c" transform="translate(394.523438 0)"/>
      <use xlink:href="#DejaVuSans-20" transform="translate(422.306641 0)"/>
      <use xlink:href="#DejaVuSans-28" transform="translate(454.09375 0)"/>
      <use xlink:href="#DejaVuSans-72" transform="translate(493.107422 0)"/>
      <use xlink:href="#DejaVuSans-69" transform="translate(534.220703 0)"/>
      <use xlink:href="#DejaVuSans-61" transform="translate(562.003906 0)"/>
      <use xlink:href="#DejaVuSans-6c" transform="translate(623.283203 0)"/>
      <use xlink:href="#DejaVuSans-29" transform="translate(651.066406 0)"/>
     </g>
    </g>
   </g>
   <g id="matplotlib.axis_4">
    <g id="ytick_8">
     <g id="line2d_23">
      <g>
       <use xlink:href="#m512c4b2324" x="445.655" y="246.04" style="stroke: #000000; stroke-width: 0.8"/>
      </g>
     </g>
     <g id="text_24">
      <!-- 0 -->
      <g transform="translate(432.2925 249.839219) scale(0.1 -0.1)">
       <use xlink:href="#DejaVuSans-30"/>
      </g>
     </g>
    </g>
    <g id="ytick_9">
     <g id="line2d_24">
      <g>
       <use xlink:href="#m512c4b2324" x="445.655" y="213.00755" style="stroke: #000000; stroke-width: 0.8"/>
      </g>
     </g>
     <g id="text_25">
      <!-- 20 -->
      <g transform="translate(425.93 216.806769) scale(0.1 -0.1)">
       <use xlink:href="#DejaVuSans-32"/>
       <use xlink:href="#DejaVuSans-30" transform="translate(63.623047 0)"/>
      </g>
     </g>
    </g>
    <g id="ytick_10">
     <g id="line2d_25">
      <g>
       <use xlink:href="#m512c4b2324" x="445.655" y="179.975101" style="stroke: #000000; stroke-width: 0.8"/>
      </g>
     </g>
     <g id="text_26">
      <!-- 40 -->
      <g transform="translate(425.93 183.774319) scale(0.1 -0.1)">
       <use xlink:href="#DejaVuSans-34"/>
       <use xlink:href="#DejaVuSans-30" transform="translate(63.623047 0)"/>
      </g>
     </g>
    </g>
    <g id="ytick_11">
     <g id="line2d_26">
      <g>
       <use xlink:href="#m512c4b2324" x="445.655" y="146.942651" style="stroke: #000000; stroke-width: 0.8"/>
      </g>
     </g>
     <g id="text_27">
      <!-- 60 -->
      <g transform="translate(425.93 150.74187) scale(0.1 -0.1)">
       <defs>
        <path id="DejaVuSans-36" d="M 2113 2584 
Q 1688 2584 1439 2293 
Q 1191 2003 1191 1497 
Q 1191 994 1439 701 
Q 1688 409 2113 409 
Q 2538 409 2786 701 
Q 3034 994 3034 1497 
Q 3034 2003 2786 2293 
Q 2538 2584 2113 2584 
z
M 3366 4563 
L 3366 3988 
Q 3128 4100 2886 4159 
Q 2644 4219 2406 4219 
Q 1781 4219 1451 3797 
Q 1122 3375 1075 2522 
Q 1259 2794 1537 2939 
Q 1816 3084 2150 3084 
Q 2853 3084 3261 2657 
Q 3669 2231 3669 1497 
Q 3669 778 3244 343 
Q 2819 -91 2113 -91 
Q 1303 -91 875 529 
Q 447 1150 447 2328 
Q 447 3434 972 4092 
Q 1497 4750 2381 4750 
Q 2619 4750 2861 4703 
Q 3103 4656 3366 4563 
z
" transform="scale(0.015625)"/>
       </defs>
       <use xlink:href="#DejaVuSans-36"/>
       <use xlink:href="#DejaVuSans-30" transform="translate(63.623047 0)"/>
      </g>
     </g>
    </g>
    <g id="ytick_12">
     <g id="line2d_27">
      <g>
       <use xlink:href="#m512c4b2324" x="445.655" y="113.910201" style="stroke: #000000; stroke-width: 0.8"/>
      </g>
     </g>
     <g id="text_28">
      <!-- 80 -->
      <g transform="translate(425.93 117.70942) scale(0.1 -0.1)">
       <defs>
        <path id="DejaVuSans-38" d="M 2034 2216 
Q 1584 2216 1326 1975 
Q 1069 1734 1069 1313 
Q 1069 891 1326 650 
Q 1584 409 2034 409 
Q 2484 409 2743 651 
Q 3003 894 3003 1313 
Q 3003 1734 2745 1975 
Q 2488 2216 2034 2216 
z
M 1403 2484 
Q 997 2584 770 2862 
Q 544 3141 544 3541 
Q 544 4100 942 4425 
Q 1341 4750 2034 4750 
Q 2731 4750 3128 4425 
Q 3525 4100 3525 3541 
Q 3525 3141 3298 2862 
Q 3072 2584 2669 2484 
Q 3125 2378 3379 2068 
Q 3634 1759 3634 1313 
Q 3634 634 3220 271 
Q 2806 -91 2034 -91 
Q 1263 -91 848 271 
Q 434 634 434 1313 
Q 434 1759 690 2068 
Q 947 2378 1403 2484 
z
M 1172 3481 
Q 1172 3119 1398 2916 
Q 1625 2713 2034 2713 
Q 2441 2713 2670 2916 
Q 2900 3119 2900 3481 
Q 2900 3844 2670 4047 
Q 2441 4250 2034 4250 
Q 1625 4250 1398 4047 
Q 1172 3844 1172 3481 
z
" transform="scale(0.015625)"/>
       </defs>
       <use xlink:href="#DejaVuSans-38"/>
       <use xlink:href="#DejaVuSans-30" transform="translate(63.623047 0)"/>
      </g>
     </g>
    </g>
    <g id="ytick_13">
     <g id="line2d_28">
      <g>
       <use xlink:href="#m512c4b2324" x="445.655" y="80.877752" style="stroke: #000000; stroke-width: 0.8"/>
      </g>
     </g>
     <g id="text_29">
      <!-- 100 -->
      <g transform="translate(419.5675 84.67697) scale(0.1 -0.1)">
       <use xlink:href="#DejaVuSans-31"/>
       <use xlink:href="#DejaVuSans-30" transform="translate(63.623047 0)"/>
       <use xlink:href="#DejaVuSans-30" transform="translate(127.246094 0)"/>
      </g>
     </g>
    </g>
    <g id="ytick_14">
     <g id="line2d_29">
      <g>
       <use xlink:href="#m512c4b2324" x="445.655" y="47.845302" style="stroke: #000000; stroke-width: 0.8"/>
      </g>
     </g>
     <g id="text_30">
      <!-- 120 -->
      <g transform="translate(419.5675 51.644521) scale(0.1 -0.1)">
       <use xlink:href="#DejaVuSans-31"/>
       <use xlink:href="#DejaVuSans-32" transform="translate(63.623047 0)"/>
       <use xlink:href="#DejaVuSans-30" transform="translate(127.246094 0)"/>
      </g>
     </g>
    </g>
    <g id="ytick_15">
     <g id="line2d_30">
      <g>
       <use xlink:href="#m512c4b2324" x="445.655" y="14.812852" style="stroke: #000000; stroke-width: 0.8"/>
      </g>
     </g>
     <g id="text_31">
      <!-- 140 -->
      <g transform="translate(419.5675 18.612071) scale(0.1 -0.1)">
       <use xlink:href="#DejaVuSans-31"/>
       <use xlink:href="#DejaVuSans-34" transform="translate(63.623047 0)"/>
       <use xlink:href="#DejaVuSans-30" transform="translate(127.246094 0)"/>
      </g>
     </g>
    </g>
    <g id="text_32">
     <!-- Count -->
     <g transform="translate(413.487813 144.696796) rotate(-90) scale(0.1 -0.1)">
      <defs>
       <path id="DejaVuSans-43" d="M 4122 4306 
L 4122 3641 
Q 3803 3938 3442 4084 
Q 3081 4231 2675 4231 
Q 1875 4231 1450 3742 
Q 1025 3253 1025 2328 
Q 1025 1406 1450 917 
Q 1875 428 2675 428 
Q 3081 428 3442 575 
Q 3803 722 4122 1019 
L 4122 359 
Q 3791 134 3420 21 
Q 3050 -91 2638 -91 
Q 1578 -91 968 557 
Q 359 1206 359 2328 
Q 359 3453 968 4101 
Q 1578 4750 2638 4750 
Q 3056 4750 3426 4639 
Q 3797 4528 4122 4306 
z
" transform="scale(0.015625)"/>
      </defs>
      <use xlink:href="#DejaVuSans-43"/>
      <use xlink:href="#DejaVuSans-6f" transform="translate(69.824219 0)"/>
      <use xlink:href="#DejaVuSans-75" transform="translate(131.005859 0)"/>
      <use xlink:href="#DejaVuSans-6e" transform="translate(194.384766 0)"/>
      <use xlink:href="#DejaVuSans-74" transform="translate(257.763672 0)"/>
     </g>
    </g>
   </g>
   <g id="patch_38">
    <path d="M 445.655 246.04 
L 445.655 13.656716 
" style="fill: none; stroke: #000000; stroke-width: 0.8; stroke-linejoin: miter; stroke-linecap: square"/>
   </g>
   <g id="patch_39">
    <path d="M 781.2 246.04 
L 781.2 13.656716 
" style="fill: none; stroke: #000000; stroke-width: 0.8; stroke-linejoin: miter; stroke-linecap: square"/>
   </g>
   <g id="patch_40">
    <path d="M 445.655 246.04 
L 781.2 246.04 
" style="fill: none; stroke: #000000; stroke-width: 0.8; stroke-linejoin: miter; stroke-linecap: square"/>
   </g>
   <g id="patch_41">
    <path d="M 445.655 13.656716 
L 781.2 13.656716 
" style="fill: none; stroke: #000000; stroke-width: 0.8; stroke-linejoin: miter; stroke-linecap: square"/>
   </g>
  </g>
 </g>
 <defs>
  <clipPath id="p5fc5b0e9ac">
   <rect x="59.24" y="13.656716" width="335.545" height="232.383284"/>
  </clipPath>
  <clipPath id="p854e5af815">
   <rect x="445.655" y="13.656716" width="335.545" height="232.383284"/>
  </clipPath>
 </defs>
</svg>
